PathFileType	4	(X/Y/Z)	 s10c0203.trc
DataRate	CameraRate	NumFrames	NumMarkers	Units	OrigDataRate	OrigDataStartFrame	OrigNumFrames
200	200	6	49	mm	200	501	2000
Frame#	Time	racr			lacr			c7			jug			rlel			rdr			llel			ldr			s2			lic			ric			lasi			rasi			rpsi			lpsi			rgt			lgt			rth1			rth2			rth3			rth4			rlfc			rmfc			rsh1			rsh2			rsh3			rsh4			rlmal			rmmal			rcal			rtoe			rmt5			lth1			lth2			lth4			lth3			llfc			lmfc			llmal			lcal			lmt5			lsh1			lsh2			lsh3			lsh4			ltoe			SBIKE			LBIKE			RBIKE			
		X1	Y1	Z1	X2	Y2	Z2	X3	Y3	Z3	X4	Y4	Z4	X5	Y5	Z5	X6	Y6	Z6	X7	Y7	Z7	X8	Y8	Z8	X9	Y9	Z9	X10	Y10	Z10	X11	Y11	Z11	X12	Y12	Z12	X13	Y13	Z13	X14	Y14	Z14	X15	Y15	Z15	X16	Y16	Z16	X17	Y17	Z17	X18	Y18	Z18	X19	Y19	Z19	X20	Y20	Z20	X21	Y21	Z21	X22	Y22	Z22	X23	Y23	Z23	X24	Y24	Z24	X25	Y25	Z25	X26	Y26	Z26	X27	Y27	Z27	X28	Y28	Z28	X29	Y29	Z29	X30	Y30	Z30	X31	Y31	Z31	X32	Y32	Z32	X33	Y33	Z33	X34	Y34	Z34	X35	Y35	Z35	X36	Y36	Z36	X37	Y37	Z37	X38	Y38	Z38	X39	Y39	Z39	X40	Y40	Z40	X41	Y41	Z41	X42	Y42	Z42	X43	Y43	Z43	X44	Y44	Z44	X45	Y45	Z45	X46	Y46	Z46	X47	Y47	Z47	X48	Y48	Z48	X49	Y49	Z49	
501	2.5050	373.576016	1242.415551	-16.065442	450.021686	1235.113878	-273.890455	350.889808	1301.332335	-166.306245	341.375299	1146.518652	-156.384589	394.683896	994.394954	84.230348	588.686522	914.004278	14.138291	483.390923	1051.106906	-485.203057	630.255595	916.262226	-392.343866	-165.134056	1093.620602	-247.848634	14.849067	1109.905343	-391.962468	-12.849386	1130.965477	-97.616234	45.124252	1028.851151	-357.780843	8.986774	1058.298850	-99.451016	-129.695483	1164.213220	-199.726797	-110.929900	1164.645848	-307.188223	-99.595890	1035.591785	-45.512540	-80.668528	967.439853	-422.860530	26.849366	963.366253	-24.810673	114.490471	959.424689	-39.676204	187.302401	915.290327	-40.500367	122.973449	994.633622	-51.180071	295.199754	871.618383	-62.974215	278.562368	853.153957	-182.511398	232.507604	775.677127	-31.076135	214.957096	688.904904	-42.568749	159.105093	623.397145	-41.870044	241.342414	679.193733	-69.682422	112.972126	531.217723	-55.776041	133.978981	545.456870	-139.761845	60.781135	494.941861	-101.925883	301.781517	521.072417	-83.115805	224.260438	478.526333	-23.923349	1.784075	860.430573	-430.586483	73.657540	814.774135	-412.270463	99.180490	839.963134	-404.902161	113.363827	736.871079	-396.287610	182.649575	655.037814	-370.043707	179.279538	652.547421	-254.523500	50.274509	298.600399	-380.279868	-5.200601	294.291764	-336.902421	118.577596	163.381095	-392.210781	123.474236	549.158810	-406.421902	125.633890	463.526025	-391.589278	83.366984	384.904423	-392.235621	152.005735	459.993749	-364.442027	195.917061	151.143058	-338.435886	-205.130069	830.892442	-224.093506	-78.182101	81.815038	-423.737902	-102.685435	80.599042	-24.443542	
502	2.5100	373.562068	1240.498807	-14.899804	450.959344	1232.454855	-272.760970	351.706091	1299.344124	-164.997194	341.154405	1144.461762	-155.306505	393.795462	992.513896	85.323668	588.064614	914.009453	14.166702	483.120814	1050.383529	-485.370903	629.974870	916.181931	-392.285816	-165.076546	1093.617034	-247.703694	14.840441	1109.559856	-391.278611	-12.613312	1130.384089	-96.608330	44.819344	1028.396880	-357.293432	9.210868	1057.508487	-98.599880	-129.435015	1163.658991	-199.017688	-110.866996	1164.750843	-306.571752	-99.359078	1034.124681	-45.335948	-80.661551	967.042279	-422.507840	27.362979	961.946846	-24.650165	114.977614	957.645129	-39.488883	187.492376	913.051103	-40.485532	123.673398	992.836699	-50.790825	295.119194	868.956487	-63.082371	278.693280	850.613055	-182.409542	234.068767	772.208528	-30.955900	217.268865	685.272777	-42.715564	162.152850	619.195109	-41.685306	243.447031	676.121036	-70.089015	116.527077	526.935866	-55.480273	137.197354	541.428506	-139.530678	64.805265	489.839841	-101.700902	305.468259	519.316460	-82.902284	228.507287	475.759558	-23.627979	3.067204	860.951177	-430.142471	75.262310	816.070801	-411.371127	100.416118	841.515233	-403.758882	115.691918	738.542432	-395.532173	184.072011	656.649598	-369.326832	180.084513	653.792600	-253.861372	46.099886	301.388461	-380.221574	-9.445324	297.051966	-336.838319	113.970347	165.903541	-392.276851	122.799184	551.224853	-405.646485	123.753360	465.626480	-391.564801	80.092253	387.632094	-392.154965	150.030897	461.554583	-364.444846	191.267049	153.329002	-338.671043	-205.209673	830.847570	-223.901898	-78.184503	81.804039	-423.709362	-102.695434	80.609425	-24.438044	
503	2.5150	373.647713	1238.596096	-13.711830	452.028339	1229.790877	-272.183258	352.757898	1297.330497	-163.947307	341.112904	1142.381100	-154.643920	392.993871	990.595972	86.436094	587.429403	913.986744	14.153037	482.794057	1049.548985	-485.583398	629.755555	916.068513	-392.324185	-164.994267	1093.636413	-247.457371	14.856221	1109.315463	-390.620147	-12.284176	1129.637499	-95.685696	44.586660	1027.949000	-356.817268	9.471979	1056.858104	-97.723911	-130.838715	1165.397614	-197.210424	-110.699747	1164.851223	-306.004476	-99.049387	1032.795661	-45.143727	-80.557344	966.886034	-422.223490	28.007518	960.477064	-24.338745	115.520272	955.762392	-39.151491	187.812011	910.677906	-40.476899	124.475269	990.976569	-50.313339	295.127136	866.500001	-63.110690	278.854821	848.310015	-182.293633	235.527744	768.961272	-30.880872	219.787749	681.871128	-42.293248	165.306466	615.320830	-41.168275	245.650910	673.020447	-70.416293	120.208723	522.498544	-55.045540	140.579118	537.282014	-139.353474	68.846341	484.855283	-101.386731	309.136543	517.311947	-82.660914	232.723114	472.756912	-23.347695	4.303934	861.603747	-429.779136	76.803658	817.298648	-410.558604	101.633493	842.899557	-402.624303	118.547698	740.579896	-395.504914	185.286982	658.252369	-368.728319	180.456923	654.866177	-253.406297	41.847662	304.215331	-380.156935	-13.839565	299.833305	-336.844872	109.412956	168.449068	-392.507411	121.939669	553.361302	-405.338280	121.654574	467.727336	-391.559585	76.765389	390.414572	-392.125064	148.094001	463.182476	-364.671057	186.669985	155.814007	-338.912366	-204.889744	830.901323	-224.069272	-78.183877	81.790321	-423.690528	-102.677247	80.599046	-24.438085	
504	2.5200	373.763972	1236.716911	-12.490467	452.959525	1227.114179	-271.155935	353.713450	1295.385291	-162.736803	340.913083	1140.391767	-153.656963	392.215880	988.744004	87.582529	586.754405	913.931786	14.172500	482.461259	1048.792347	-485.749870	629.505618	915.956000	-392.374286	-165.045328	1094.134939	-247.247748	14.909082	1109.165940	-389.953548	-11.828268	1128.954958	-94.793670	44.359462	1027.636530	-356.298488	9.722221	1056.024454	-96.989527	-131.734673	1166.446358	-196.030695	-110.501380	1164.990809	-305.258952	-98.597470	1031.475631	-44.865730	-80.459181	966.811079	-421.964885	28.704850	958.867698	-23.946683	116.222960	953.872602	-38.680108	188.209416	908.321823	-40.409978	125.394170	989.038168	-49.694815	295.150074	863.938062	-63.064025	279.170627	845.700767	-183.706163	237.034366	765.726702	-30.620422	222.030631	678.603599	-42.207263	168.230173	611.446334	-40.909208	247.797601	670.017795	-70.417854	123.795992	518.123410	-54.561944	144.011120	533.269664	-139.193142	72.804230	480.166573	-100.913761	312.811251	515.099935	-82.365870	236.936582	469.644474	-23.072459	5.468669	862.257022	-429.402714	78.241133	818.595194	-409.891054	102.784256	844.375844	-401.716160	120.549467	742.179190	-394.872125	186.296684	659.719112	-368.268877	180.651029	655.830372	-252.833751	37.456153	307.228459	-380.177287	-18.177375	302.751115	-336.924711	104.882531	171.249137	-392.653667	120.829772	555.383970	-405.048386	119.495257	469.771035	-391.693570	73.472207	392.963727	-392.131720	146.014159	464.694010	-364.960226	182.197780	158.471666	-339.098850	-204.890598	830.885006	-223.995797	-78.184138	81.755392	-423.743355	-102.668349	80.585685	-24.450261	
505	2.5250	373.987549	1234.870678	-11.252277	453.986745	1224.555976	-270.287862	354.654929	1293.485817	-161.333085	340.840336	1138.436241	-152.614674	391.415002	986.910082	88.751234	586.174037	913.902503	14.225047	482.075216	1047.860922	-485.984887	629.239169	915.871594	-392.444541	-164.855293	1094.313343	-246.761050	14.951991	1109.062158	-389.112710	-11.211292	1128.173960	-93.856888	44.163259	1027.448390	-355.816615	10.174596	1055.201619	-96.317566	-133.662939	1165.966238	-194.041486	-110.326501	1165.277656	-304.331111	-98.045521	1030.095004	-44.556257	-80.353185	966.819568	-421.745030	29.621072	957.398619	-23.350128	116.940353	951.963907	-38.131607	188.678192	905.851583	-40.257249	126.353491	987.023381	-49.072616	295.236553	861.449410	-62.890893	279.399623	843.305107	-183.446468	238.387099	762.552596	-30.309761	224.212847	675.398385	-41.976747	171.052187	607.620213	-40.555711	249.938981	667.128091	-70.307306	127.385339	513.769422	-54.243025	147.307900	529.292400	-138.824203	76.625491	475.466396	-100.365683	316.447853	512.753502	-82.114405	241.044465	466.455935	-22.725610	6.496852	862.815483	-429.039237	79.562455	819.783067	-409.286800	103.860326	845.774179	-400.846445	122.458704	743.684731	-394.412536	187.189746	661.130725	-367.856725	180.812744	656.643023	-252.320788	33.159043	310.246494	-380.247613	-22.569644	305.693705	-337.023505	100.431883	174.207210	-392.860900	119.565987	557.446818	-404.943816	117.058922	471.373556	-391.607479	70.144967	395.627905	-392.125657	143.674242	465.850363	-364.932288	177.693005	161.431625	-339.281441	-204.870158	830.877643	-223.975300	-78.172399	81.808510	-423.725005	-102.666901	80.576670	-24.441818	
506	2.5300	374.330408	1233.019798	-9.998854	455.069612	1222.095685	-269.511591	355.720314	1291.620804	-160.092406	340.904144	1136.520458	-151.746276	390.744969	985.106670	89.995378	585.710333	913.946397	14.151250	481.609254	1046.953847	-486.262670	628.964665	915.797900	-392.554114	-164.448855	1094.067458	-245.530136	15.155053	1109.161743	-388.387515	-10.521299	1127.377444	-92.919338	44.031462	1027.377453	-355.389699	10.702015	1054.378669	-95.698956	-132.996479	1165.740428	-193.058091	-109.976918	1165.626471	-303.392805	-97.248221	1028.845844	-44.165730	-80.236877	966.896121	-421.411599	30.485401	955.702678	-22.800202	117.625752	949.896646	-37.498551	189.137128	903.237132	-40.198618	127.278226	984.988013	-48.376632	295.262550	859.050364	-62.605592	279.557907	841.132833	-182.962356	239.620707	759.521205	-29.994743	226.289989	672.119677	-41.713833	173.884151	603.907939	-40.138505	252.061495	664.084528	-70.101365	130.982803	509.517616	-53.797992	150.928674	525.282033	-138.588649	81.020738	470.346965	-100.696168	320.163680	510.130431	-81.798096	245.169502	463.153014	-22.467274	7.384659	863.578838	-428.616026	80.745164	820.994191	-408.783194	104.801492	847.052991	-400.181963	124.133726	745.181860	-393.952800	187.865489	662.301622	-367.658447	180.995894	657.270421	-251.687091	28.803474	313.290580	-380.341975	-27.020904	308.684453	-337.165046	96.054156	177.232168	-393.042814	118.208996	559.341756	-404.940277	114.820329	473.580337	-391.982854	66.708522	398.200009	-392.172204	141.648877	467.761327	-365.845016	173.348889	164.541830	-339.398726	-204.575086	831.008500	-224.282809	-78.170602	81.796315	-423.704218	-102.689856	80.592001	-24.436724	
